<svg width="177" height="115" viewBox="0 0 177 115" fill="none" xmlns="http://www.w3.org/2000/svg">
<path d="M53.5352 112.698C52.5935 113.985 51.0949 114.745 49.5008 114.745L10.2293 114.745C6.06747 114.745 3.72731 109.957 6.28393 106.673L42.2744 60.4439C43.6806 58.6377 43.6806 56.1071 42.2744 54.3009L6.28393 8.07144C3.72731 4.78749 6.06746 -8.38621e-05 10.2293 -8.4226e-05L49.5007 -8.76592e-05C51.0949 -8.77985e-05 52.5935 0.760082 53.5352 2.0464L91.8757 54.4189C93.1631 56.1775 93.1631 58.5673 91.8757 60.3259L53.5352 112.698Z" fill="black"/>
<path d="M136.399 112.698C135.458 113.985 133.959 114.745 132.365 114.745L93.0935 114.745C88.9317 114.745 86.5916 109.957 89.1482 106.673L125.139 60.4439C126.545 58.6377 126.545 56.1071 125.139 54.3009L89.1482 8.07144C86.5916 4.78749 88.9317 -8.38621e-05 93.0935 -8.4226e-05L132.365 -8.76592e-05C133.959 -8.77985e-05 135.458 0.760082 136.399 2.0464L174.74 54.4189C176.027 56.1775 176.027 58.5673 174.74 60.3259L136.399 112.698Z" fill="#11CF30"/>
</svg>
