<svg width="36" height="36" viewBox="0 0 36 36" fill="none" xmlns="http://www.w3.org/2000/svg">
<g id="Back_to_Top">
<rect id="Rectangle 61" width="36" height="36" rx="5" fill="#11CF30"/>
<path id="Vector" fill-rule="evenodd" clip-rule="evenodd" d="M18 29C17.6212 29 17.2579 28.8551 16.99 28.5973C16.7222 28.3395 16.5717 27.9898 16.5717 27.6252L16.5717 11.6962L10.4414 17.5998C10.3086 17.7276 10.1509 17.829 9.9774 17.8982C9.80389 17.9674 9.61792 18.003 9.43012 18.003C9.24231 18.003 9.05634 17.9674 8.88283 17.8982C8.70932 17.829 8.55167 17.7276 8.41887 17.5998C8.28607 17.4719 8.18073 17.3202 8.10886 17.1532C8.03699 16.9862 8 16.8072 8 16.6264C8 16.4456 8.03699 16.2666 8.10886 16.0996C8.18073 15.9326 8.28607 15.7808 8.41887 15.653L16.9888 7.40391C17.1214 7.27588 17.279 7.1743 17.4526 7.10499C17.6261 7.03568 17.8121 7 18 7C18.1879 7 18.3739 7.03568 18.5474 7.10499C18.721 7.1743 18.8786 7.27588 19.0112 7.40391L27.5811 15.653C27.7139 15.7808 27.8193 15.9326 27.8911 16.0996C27.963 16.2666 28 16.4456 28 16.6264C28 16.8072 27.963 16.9862 27.8911 17.1532C27.8193 17.3202 27.7139 17.4719 27.5811 17.5998C27.3129 17.8579 26.9492 18.003 26.5699 18.003C26.3821 18.003 26.1961 17.9674 26.0226 17.8982C25.8491 17.829 25.6914 17.7276 25.5586 17.5998L19.4283 11.6962L19.4283 27.6252C19.4283 27.9898 19.2778 28.3395 19.01 28.5973C18.7421 28.8551 18.3788 29 18 29Z" fill="white"/>
</g>
</svg>
