<svg width="169" height="33" viewBox="0 0 169 33" fill="none" xmlns="http://www.w3.org/2000/svg">
<path d="M4.872 32V15.788H0.924V10.58H4.872V8.018C4.872 3.258 7.504 0.877998 12.768 0.877998C13.916 0.877998 15.12 1.004 16.38 1.256V6.296C15.484 6.128 14.686 6.044 13.986 6.044C12.866 6.044 12.054 6.254 11.55 6.674C11.074 7.094 10.836 7.752 10.836 8.648V10.58H16.38V15.788H10.836V32H4.872ZM20.0005 32V1.256H25.9645V32H20.0005ZM48.406 30.236C46.67 31.804 44.262 32.588 41.182 32.588C38.102 32.588 35.68 31.804 33.916 30.236C32.18 28.64 31.312 26.484 31.312 23.768V10.58H37.276V23.012C37.276 25.812 38.578 27.212 41.182 27.212C43.758 27.212 45.046 25.812 45.046 23.012V10.58H51.01V23.768C51.01 26.484 50.142 28.64 48.406 30.236ZM73.0974 30.236C71.3614 31.804 68.9534 32.588 65.8734 32.588C62.7934 32.588 60.3714 31.804 58.6074 30.236C56.8714 28.64 56.0034 26.484 56.0034 23.768V10.58H61.9674V23.012C61.9674 25.812 63.2694 27.212 65.8734 27.212C68.4494 27.212 69.7374 25.812 69.7374 23.012V10.58H75.7014V23.768C75.7014 26.484 74.8334 28.64 73.0974 30.236ZM91.0688 32.588C87.7088 32.588 84.9928 31.538 82.9208 29.438C80.8768 27.338 79.8548 24.622 79.8548 21.29C79.8548 17.93 80.8768 15.214 82.9208 13.142C84.9928 11.042 87.7088 9.992 91.0688 9.992C93.1688 9.992 95.0448 10.426 96.6968 11.294C98.3768 12.162 99.6508 13.366 100.519 14.906L96.0668 18.056C94.9188 16.292 93.3088 15.41 91.2368 15.41C89.6408 15.41 88.3528 15.942 87.3728 17.006C86.3928 18.07 85.9028 19.498 85.9028 21.29C85.9028 23.082 86.3928 24.51 87.3728 25.574C88.3528 26.638 89.6408 27.17 91.2368 27.17C93.3088 27.17 94.9188 26.288 96.0668 24.524L100.519 27.632C99.6508 29.2 98.3768 30.418 96.6968 31.286C95.0448 32.154 93.1688 32.588 91.0688 32.588Z" fill="#11CF30"/>
<path d="M125.082 32L122.73 25.574H110.592L108.24 32H101.73L113.07 2.6H120.21L131.592 32H125.082ZM112.482 20.324H120.84L116.682 8.816L112.482 20.324ZM140.638 6.464C139.966 7.108 139.07 7.43 137.95 7.43C136.83 7.43 135.934 7.108 135.262 6.464C134.59 5.792 134.254 4.924 134.254 3.86C134.254 2.796 134.59 1.942 135.262 1.298C135.934 0.625998 136.83 0.289998 137.95 0.289998C139.07 0.289998 139.966 0.625998 140.638 1.298C141.31 1.942 141.646 2.796 141.646 3.86C141.646 4.924 141.31 5.792 140.638 6.464ZM134.968 32V10.58H140.932V32H134.968ZM162.07 1.256H168.034V32H162.154V28.808C161.538 29.984 160.6 30.908 159.34 31.58C158.08 32.252 156.68 32.588 155.14 32.588C152.34 32.588 150.03 31.538 148.21 29.438C146.39 27.338 145.48 24.622 145.48 21.29C145.48 17.958 146.39 15.242 148.21 13.142C150.03 11.042 152.34 9.992 155.14 9.992C156.652 9.992 158.024 10.314 159.256 10.958C160.488 11.574 161.426 12.456 162.07 13.604V1.256ZM152.956 25.616C153.936 26.68 155.252 27.212 156.904 27.212C158.556 27.212 159.858 26.68 160.81 25.616C161.79 24.524 162.28 23.082 162.28 21.29C162.28 19.498 161.79 18.07 160.81 17.006C159.858 15.914 158.556 15.368 156.904 15.368C155.252 15.368 153.936 15.914 152.956 17.006C152.004 18.07 151.528 19.498 151.528 21.29C151.528 23.082 152.004 24.524 152.956 25.616Z" fill="white"/>
</svg>
