<svg width="218" height="33" viewBox="0 0 218 33" fill="none" xmlns="http://www.w3.org/2000/svg">
<path d="M4.872 32V15.788H0.924V10.58H4.872V8.018C4.872 3.258 7.504 0.877998 12.768 0.877998C13.916 0.877998 15.12 1.004 16.38 1.256V6.296C15.484 6.128 14.686 6.044 13.986 6.044C12.866 6.044 12.054 6.254 11.55 6.674C11.074 7.094 10.836 7.752 10.836 8.648V10.58H16.38V15.788H10.836V32H4.872ZM20.0005 32V1.256H25.9645V32H20.0005ZM48.406 30.236C46.67 31.804 44.262 32.588 41.182 32.588C38.102 32.588 35.68 31.804 33.916 30.236C32.18 28.64 31.312 26.484 31.312 23.768V10.58H37.276V23.012C37.276 25.812 38.578 27.212 41.182 27.212C43.758 27.212 45.046 25.812 45.046 23.012V10.58H51.01V23.768C51.01 26.484 50.142 28.64 48.406 30.236ZM73.0974 30.236C71.3614 31.804 68.9534 32.588 65.8734 32.588C62.7934 32.588 60.3714 31.804 58.6074 30.236C56.8714 28.64 56.0034 26.484 56.0034 23.768V10.58H61.9674V23.012C61.9674 25.812 63.2694 27.212 65.8734 27.212C68.4494 27.212 69.7374 25.812 69.7374 23.012V10.58H75.7014V23.768C75.7014 26.484 74.8334 28.64 73.0974 30.236ZM91.0688 32.588C87.7088 32.588 84.9928 31.538 82.9208 29.438C80.8768 27.338 79.8548 24.622 79.8548 21.29C79.8548 17.93 80.8768 15.214 82.9208 13.142C84.9928 11.042 87.7088 9.992 91.0688 9.992C93.1688 9.992 95.0448 10.426 96.6968 11.294C98.3768 12.162 99.6508 13.366 100.519 14.906L96.0668 18.056C94.9188 16.292 93.3088 15.41 91.2368 15.41C89.6408 15.41 88.3528 15.942 87.3728 17.006C86.3928 18.07 85.9028 19.498 85.9028 21.29C85.9028 23.082 86.3928 24.51 87.3728 25.574C88.3528 26.638 89.6408 27.17 91.2368 27.17C93.3088 27.17 94.9188 26.288 96.0668 24.524L100.519 27.632C99.6508 29.2 98.3768 30.418 96.6968 31.286C95.0448 32.154 93.1688 32.588 91.0688 32.588Z" fill="#11CF30"/>
<path d="M123.234 32L113.91 20.114H110.802V32H104.586V2.6H110.802V14.402H113.994L123.024 2.6H130.332L118.95 17.258L130.752 32H123.234ZM146.503 9.992C148.799 9.992 150.591 10.692 151.879 12.092C153.195 13.464 153.853 15.424 153.853 17.972V32H147.889V19.526C147.889 18.126 147.595 17.09 147.007 16.418C146.419 15.746 145.495 15.41 144.235 15.41C142.835 15.41 141.743 15.802 140.959 16.586C140.175 17.37 139.783 18.476 139.783 19.904V32H133.819V10.58H139.657V13.688C140.245 12.54 141.141 11.644 142.345 11C143.549 10.328 144.935 9.992 146.503 9.992ZM169.619 32.588C166.203 32.588 163.445 31.51 161.345 29.354C159.245 27.17 158.195 24.482 158.195 21.29C158.195 18.07 159.245 15.382 161.345 13.226C163.445 11.07 166.203 9.992 169.619 9.992C173.063 9.992 175.835 11.07 177.935 13.226C180.035 15.382 181.085 18.07 181.085 21.29C181.085 24.51 180.035 27.198 177.935 29.354C175.835 31.51 173.063 32.588 169.619 32.588ZM165.671 25.616C166.651 26.68 167.967 27.212 169.619 27.212C171.271 27.212 172.573 26.68 173.525 25.616C174.505 24.524 174.995 23.082 174.995 21.29C174.995 19.498 174.505 18.07 173.525 17.006C172.573 15.914 171.271 15.368 169.619 15.368C167.967 15.368 166.651 15.914 165.671 17.006C164.719 18.07 164.243 19.498 164.243 21.29C164.243 23.082 164.719 24.524 165.671 25.616ZM211.631 10.58H217.763L211.169 32H204.575L200.291 18.14L196.049 32H189.413L182.861 10.58H188.951L192.983 25.028L197.477 10.58H203.147L207.599 24.986L211.631 10.58Z" fill="black"/>
</svg>
