<svg width="609" height="609" viewBox="0 0 609 609" fill="none" xmlns="http://www.w3.org/2000/svg">
<path d="M587.224 141.627C588.911 144.548 590.553 147.497 592.15 150.475C589.25 148.577 587.311 145.331 587.224 141.627Z" fill="#11CF30" fill-opacity="0.24"/>
<path d="M527.682 66.5508C532.749 71.3061 537.664 76.2215 542.42 81.2889C540.581 84.6874 536.985 86.9958 532.849 86.9958C526.843 86.9958 521.975 82.1271 521.975 76.1213C521.975 71.9859 524.283 68.3896 527.682 66.5508Z" fill="#11CF30" fill-opacity="0.24"/>
<path d="M458.496 16.8203C461.473 18.4176 464.423 20.0598 467.344 21.7459C463.639 21.6595 460.393 19.7208 458.496 16.8203Z" fill="#11CF30" fill-opacity="0.24"/>
<path d="M141.627 21.7459C144.548 20.0598 147.497 18.4176 150.475 16.8203C148.577 19.7208 145.331 21.6595 141.627 21.7459Z" fill="#11CF30" fill-opacity="0.24"/>
<path d="M66.5508 81.2889C71.3061 76.2215 76.2215 71.3061 81.2889 66.5508C84.6874 68.3896 86.9958 71.9859 86.9958 76.1213C86.9958 82.1271 82.1271 86.9958 76.1213 86.9958C71.9859 86.9958 68.3896 84.6874 66.5508 81.2889Z" fill="#11CF30" fill-opacity="0.24"/>
<path d="M16.8203 150.475C18.4176 147.497 20.0598 144.548 21.7459 141.627C21.6595 145.331 19.7208 148.577 16.8203 150.475Z" fill="#11CF30" fill-opacity="0.24"/>
<path d="M592.15 458.496C590.553 461.473 588.911 464.423 587.224 467.344C587.311 463.639 589.25 460.393 592.15 458.496Z" fill="#11CF30" fill-opacity="0.24"/>
<path d="M542.42 527.682C540.581 524.283 536.985 521.975 532.849 521.975C526.843 521.975 521.975 526.843 521.975 532.849C521.975 536.985 524.283 540.581 527.682 542.42C532.749 537.664 537.664 532.749 542.42 527.682Z" fill="#11CF30" fill-opacity="0.24"/>
<path d="M467.344 587.224C463.639 587.311 460.393 589.25 458.496 592.15C461.473 590.553 464.423 588.911 467.344 587.224Z" fill="#11CF30" fill-opacity="0.24"/>
<path d="M150.475 592.15C148.577 589.25 145.331 587.311 141.627 587.224C144.548 588.911 147.497 590.553 150.475 592.15Z" fill="#11CF30" fill-opacity="0.24"/>
<path d="M81.2889 542.42C84.6874 540.581 86.9958 536.985 86.9958 532.849C86.9958 526.843 82.1271 521.975 76.1213 521.975C71.9859 521.975 68.3896 524.283 66.5508 527.682C71.3061 532.749 76.2215 537.664 81.2889 542.42Z" fill="#11CF30" fill-opacity="0.24"/>
<path d="M21.7459 467.344C21.6595 463.639 19.7208 460.393 16.8203 458.496C18.4176 461.473 20.0598 464.423 21.7459 467.344Z" fill="#11CF30" fill-opacity="0.24"/>
<path d="M217.489 10.8745C217.489 16.8803 212.621 21.7489 206.615 21.7489C200.609 21.7489 195.74 16.8803 195.74 10.8745C195.74 4.86867 200.609 0 206.615 0C212.621 0 217.489 4.86867 217.489 10.8745Z" fill="#11CF30" fill-opacity="0.24"/>
<path d="M282.736 10.8745C282.736 16.8803 277.868 21.7489 271.862 21.7489C265.856 21.7489 260.987 16.8803 260.987 10.8745C260.987 4.86867 265.856 0 271.862 0C277.868 0 282.736 4.86867 282.736 10.8745Z" fill="#11CF30" fill-opacity="0.24"/>
<path d="M347.983 10.8745C347.983 16.8803 343.114 21.7489 337.109 21.7489C331.103 21.7489 326.234 16.8803 326.234 10.8745C326.234 4.86867 331.103 0 337.109 0C343.114 0 347.983 4.86867 347.983 10.8745Z" fill="#11CF30" fill-opacity="0.24"/>
<path d="M413.23 10.8745C413.23 16.8803 408.361 21.7489 402.355 21.7489C396.35 21.7489 391.481 16.8803 391.481 10.8745C391.481 4.86867 396.35 0 402.355 0C408.361 0 413.23 4.86867 413.23 10.8745Z" fill="#11CF30" fill-opacity="0.24"/>
<path d="M152.243 76.1213C152.243 82.1271 147.374 86.9958 141.368 86.9958C135.362 86.9958 130.494 82.1271 130.494 76.1213C130.494 70.1155 135.362 65.2468 141.368 65.2468C147.374 65.2468 152.243 70.1155 152.243 76.1213Z" fill="#11CF30" fill-opacity="0.24"/>
<path d="M217.489 76.1213C217.489 82.1271 212.621 86.9958 206.615 86.9958C200.609 86.9958 195.74 82.1271 195.74 76.1213C195.74 70.1155 200.609 65.2468 206.615 65.2468C212.621 65.2468 217.489 70.1155 217.489 76.1213Z" fill="#11CF30" fill-opacity="0.24"/>
<path d="M282.736 76.1213C282.736 82.1271 277.868 86.9958 271.862 86.9958C265.856 86.9958 260.987 82.1271 260.987 76.1213C260.987 70.1155 265.856 65.2468 271.862 65.2468C277.868 65.2468 282.736 70.1155 282.736 76.1213Z" fill="#11CF30" fill-opacity="0.24"/>
<path d="M347.983 76.1213C347.983 82.1271 343.114 86.9958 337.109 86.9958C331.103 86.9958 326.234 82.1271 326.234 76.1213C326.234 70.1155 331.103 65.2468 337.109 65.2468C343.114 65.2468 347.983 70.1155 347.983 76.1213Z" fill="#11CF30" fill-opacity="0.24"/>
<path d="M413.23 76.1213C413.23 82.1271 408.361 86.9958 402.355 86.9958C396.35 86.9958 391.481 82.1271 391.481 76.1213C391.481 70.1155 396.35 65.2468 402.355 65.2468C408.361 65.2468 413.23 70.1155 413.23 76.1213Z" fill="#11CF30" fill-opacity="0.24"/>
<path d="M478.477 76.1213C478.477 82.1271 473.608 86.9958 467.602 86.9958C461.596 86.9958 456.728 82.1271 456.728 76.1213C456.728 70.1155 461.596 65.2468 467.602 65.2468C473.608 65.2468 478.477 70.1155 478.477 76.1213Z" fill="#11CF30" fill-opacity="0.24"/>
<path d="M86.9958 141.368C86.9958 147.374 82.1271 152.243 76.1213 152.243C70.1155 152.243 65.2468 147.374 65.2468 141.368C65.2468 135.362 70.1155 130.494 76.1213 130.494C82.1271 130.494 86.9958 135.362 86.9958 141.368Z" fill="#11CF30" fill-opacity="0.24"/>
<path d="M152.243 141.368C152.243 147.374 147.374 152.243 141.368 152.243C135.362 152.243 130.494 147.374 130.494 141.368C130.494 135.362 135.362 130.494 141.368 130.494C147.374 130.494 152.243 135.362 152.243 141.368Z" fill="#11CF30" fill-opacity="0.24"/>
<path d="M217.489 141.368C217.489 147.374 212.621 152.243 206.615 152.243C200.609 152.243 195.74 147.374 195.74 141.368C195.74 135.362 200.609 130.494 206.615 130.494C212.621 130.494 217.489 135.362 217.489 141.368Z" fill="#11CF30" fill-opacity="0.24"/>
<path d="M282.736 141.368C282.736 147.374 277.868 152.243 271.862 152.243C265.856 152.243 260.987 147.374 260.987 141.368C260.987 135.362 265.856 130.494 271.862 130.494C277.868 130.494 282.736 135.362 282.736 141.368Z" fill="#11CF30" fill-opacity="0.24"/>
<path d="M347.983 141.368C347.983 147.374 343.114 152.243 337.109 152.243C331.103 152.243 326.234 147.374 326.234 141.368C326.234 135.362 331.103 130.494 337.109 130.494C343.114 130.494 347.983 135.362 347.983 141.368Z" fill="#11CF30" fill-opacity="0.24"/>
<path d="M413.23 141.368C413.23 147.374 408.361 152.243 402.355 152.243C396.35 152.243 391.481 147.374 391.481 141.368C391.481 135.362 396.35 130.494 402.355 130.494C408.361 130.494 413.23 135.362 413.23 141.368Z" fill="#11CF30" fill-opacity="0.24"/>
<path d="M478.477 141.368C478.477 147.374 473.608 152.243 467.602 152.243C461.596 152.243 456.728 147.374 456.728 141.368C456.728 135.362 461.596 130.494 467.602 130.494C473.608 130.494 478.477 135.362 478.477 141.368Z" fill="#11CF30" fill-opacity="0.24"/>
<path d="M543.724 141.368C543.724 147.374 538.855 152.243 532.849 152.243C526.843 152.243 521.975 147.374 521.975 141.368C521.975 135.362 526.843 130.494 532.849 130.494C538.855 130.494 543.724 135.362 543.724 141.368Z" fill="#11CF30" fill-opacity="0.24"/>
<path d="M21.7489 206.615C21.7489 212.621 16.8803 217.489 10.8745 217.489C4.86867 217.489 0 212.621 0 206.615C0 200.609 4.86867 195.74 10.8745 195.74C16.8803 195.74 21.7489 200.609 21.7489 206.615Z" fill="#11CF30" fill-opacity="0.24"/>
<path d="M86.9958 206.615C86.9958 212.621 82.1271 217.489 76.1213 217.489C70.1155 217.489 65.2468 212.621 65.2468 206.615C65.2468 200.609 70.1155 195.74 76.1213 195.74C82.1271 195.74 86.9958 200.609 86.9958 206.615Z" fill="#11CF30" fill-opacity="0.24"/>
<path d="M152.243 206.615C152.243 212.621 147.374 217.489 141.368 217.489C135.362 217.489 130.494 212.621 130.494 206.615C130.494 200.609 135.362 195.74 141.368 195.74C147.374 195.74 152.243 200.609 152.243 206.615Z" fill="#11CF30" fill-opacity="0.24"/>
<path d="M217.489 206.615C217.489 212.621 212.621 217.489 206.615 217.489C200.609 217.489 195.74 212.621 195.74 206.615C195.74 200.609 200.609 195.74 206.615 195.74C212.621 195.74 217.489 200.609 217.489 206.615Z" fill="#11CF30" fill-opacity="0.24"/>
<path d="M282.736 206.615C282.736 212.621 277.868 217.489 271.862 217.489C265.856 217.489 260.987 212.621 260.987 206.615C260.987 200.609 265.856 195.74 271.862 195.74C277.868 195.74 282.736 200.609 282.736 206.615Z" fill="#11CF30" fill-opacity="0.24"/>
<path d="M347.983 206.615C347.983 212.621 343.114 217.489 337.109 217.489C331.103 217.489 326.234 212.621 326.234 206.615C326.234 200.609 331.103 195.74 337.109 195.74C343.114 195.74 347.983 200.609 347.983 206.615Z" fill="#11CF30" fill-opacity="0.24"/>
<path d="M413.23 206.615C413.23 212.621 408.361 217.489 402.355 217.489C396.35 217.489 391.481 212.621 391.481 206.615C391.481 200.609 396.35 195.74 402.355 195.74C408.361 195.74 413.23 200.609 413.23 206.615Z" fill="#11CF30" fill-opacity="0.24"/>
<path d="M478.477 206.615C478.477 212.621 473.608 217.489 467.602 217.489C461.596 217.489 456.728 212.621 456.728 206.615C456.728 200.609 461.596 195.74 467.602 195.74C473.608 195.74 478.477 200.609 478.477 206.615Z" fill="#11CF30" fill-opacity="0.24"/>
<path d="M543.724 206.615C543.724 212.621 538.855 217.489 532.849 217.489C526.843 217.489 521.975 212.621 521.975 206.615C521.975 200.609 526.843 195.74 532.849 195.74C538.855 195.74 543.724 200.609 543.724 206.615Z" fill="#11CF30" fill-opacity="0.24"/>
<path d="M608.97 206.615C608.97 212.621 604.102 217.489 598.096 217.489C592.09 217.489 587.221 212.621 587.221 206.615C587.221 200.609 592.09 195.74 598.096 195.74C604.102 195.74 608.97 200.609 608.97 206.615Z" fill="#11CF30" fill-opacity="0.24"/>
<path d="M21.7489 271.862C21.7489 277.868 16.8803 282.736 10.8745 282.736C4.86867 282.736 0 277.868 0 271.862C0 265.856 4.86867 260.987 10.8745 260.987C16.8803 260.987 21.7489 265.856 21.7489 271.862Z" fill="#11CF30" fill-opacity="0.24"/>
<path d="M86.9958 271.862C86.9958 277.868 82.1271 282.736 76.1213 282.736C70.1155 282.736 65.2468 277.868 65.2468 271.862C65.2468 265.856 70.1155 260.987 76.1213 260.987C82.1271 260.987 86.9958 265.856 86.9958 271.862Z" fill="#11CF30" fill-opacity="0.24"/>
<path d="M152.243 271.862C152.243 277.868 147.374 282.736 141.368 282.736C135.362 282.736 130.494 277.868 130.494 271.862C130.494 265.856 135.362 260.987 141.368 260.987C147.374 260.987 152.243 265.856 152.243 271.862Z" fill="#11CF30" fill-opacity="0.24"/>
<path d="M217.489 271.862C217.489 277.868 212.621 282.736 206.615 282.736C200.609 282.736 195.74 277.868 195.74 271.862C195.74 265.856 200.609 260.987 206.615 260.987C212.621 260.987 217.489 265.856 217.489 271.862Z" fill="#11CF30" fill-opacity="0.24"/>
<path d="M282.736 271.862C282.736 277.868 277.868 282.736 271.862 282.736C265.856 282.736 260.987 277.868 260.987 271.862C260.987 265.856 265.856 260.987 271.862 260.987C277.868 260.987 282.736 265.856 282.736 271.862Z" fill="#11CF30" fill-opacity="0.24"/>
<path d="M347.983 271.862C347.983 277.868 343.114 282.736 337.109 282.736C331.103 282.736 326.234 277.868 326.234 271.862C326.234 265.856 331.103 260.987 337.109 260.987C343.114 260.987 347.983 265.856 347.983 271.862Z" fill="#11CF30" fill-opacity="0.24"/>
<path d="M413.23 271.862C413.23 277.868 408.361 282.736 402.355 282.736C396.35 282.736 391.481 277.868 391.481 271.862C391.481 265.856 396.35 260.987 402.355 260.987C408.361 260.987 413.23 265.856 413.23 271.862Z" fill="#11CF30" fill-opacity="0.24"/>
<path d="M478.477 271.862C478.477 277.868 473.608 282.736 467.602 282.736C461.596 282.736 456.728 277.868 456.728 271.862C456.728 265.856 461.596 260.987 467.602 260.987C473.608 260.987 478.477 265.856 478.477 271.862Z" fill="#11CF30" fill-opacity="0.24"/>
<path d="M543.724 271.862C543.724 277.868 538.855 282.736 532.849 282.736C526.843 282.736 521.975 277.868 521.975 271.862C521.975 265.856 526.843 260.987 532.849 260.987C538.855 260.987 543.724 265.856 543.724 271.862Z" fill="#11CF30" fill-opacity="0.24"/>
<path d="M608.97 271.862C608.97 277.868 604.102 282.736 598.096 282.736C592.09 282.736 587.221 277.868 587.221 271.862C587.221 265.856 592.09 260.987 598.096 260.987C604.102 260.987 608.97 265.856 608.97 271.862Z" fill="#11CF30" fill-opacity="0.24"/>
<path d="M21.7489 337.109C21.7489 343.114 16.8803 347.983 10.8745 347.983C4.86867 347.983 0 343.114 0 337.109C0 331.103 4.86867 326.234 10.8745 326.234C16.8803 326.234 21.7489 331.103 21.7489 337.109Z" fill="#11CF30" fill-opacity="0.24"/>
<path d="M86.9958 337.109C86.9958 343.114 82.1271 347.983 76.1213 347.983C70.1155 347.983 65.2468 343.114 65.2468 337.109C65.2468 331.103 70.1155 326.234 76.1213 326.234C82.1271 326.234 86.9958 331.103 86.9958 337.109Z" fill="#11CF30" fill-opacity="0.24"/>
<path d="M152.243 337.109C152.243 343.114 147.374 347.983 141.368 347.983C135.362 347.983 130.494 343.114 130.494 337.109C130.494 331.103 135.362 326.234 141.368 326.234C147.374 326.234 152.243 331.103 152.243 337.109Z" fill="#11CF30" fill-opacity="0.24"/>
<path d="M217.489 337.109C217.489 343.114 212.621 347.983 206.615 347.983C200.609 347.983 195.74 343.114 195.74 337.109C195.74 331.103 200.609 326.234 206.615 326.234C212.621 326.234 217.489 331.103 217.489 337.109Z" fill="#11CF30" fill-opacity="0.24"/>
<path d="M282.736 337.109C282.736 343.114 277.868 347.983 271.862 347.983C265.856 347.983 260.987 343.114 260.987 337.109C260.987 331.103 265.856 326.234 271.862 326.234C277.868 326.234 282.736 331.103 282.736 337.109Z" fill="#11CF30" fill-opacity="0.24"/>
<path d="M347.983 337.109C347.983 343.114 343.114 347.983 337.109 347.983C331.103 347.983 326.234 343.114 326.234 337.109C326.234 331.103 331.103 326.234 337.109 326.234C343.114 326.234 347.983 331.103 347.983 337.109Z" fill="#11CF30" fill-opacity="0.24"/>
<path d="M413.23 337.109C413.23 343.114 408.361 347.983 402.355 347.983C396.35 347.983 391.481 343.114 391.481 337.109C391.481 331.103 396.35 326.234 402.355 326.234C408.361 326.234 413.23 331.103 413.23 337.109Z" fill="#11CF30" fill-opacity="0.24"/>
<path d="M478.477 337.109C478.477 343.114 473.608 347.983 467.602 347.983C461.596 347.983 456.728 343.114 456.728 337.109C456.728 331.103 461.596 326.234 467.602 326.234C473.608 326.234 478.477 331.103 478.477 337.109Z" fill="#11CF30" fill-opacity="0.24"/>
<path d="M543.724 337.109C543.724 343.114 538.855 347.983 532.849 347.983C526.843 347.983 521.975 343.114 521.975 337.109C521.975 331.103 526.843 326.234 532.849 326.234C538.855 326.234 543.724 331.103 543.724 337.109Z" fill="#11CF30" fill-opacity="0.24"/>
<path d="M608.97 337.109C608.97 343.114 604.102 347.983 598.096 347.983C592.09 347.983 587.221 343.114 587.221 337.109C587.221 331.103 592.09 326.234 598.096 326.234C604.102 326.234 608.97 331.103 608.97 337.109Z" fill="#11CF30" fill-opacity="0.24"/>
<path d="M21.7489 402.355C21.7489 408.361 16.8803 413.23 10.8745 413.23C4.86867 413.23 0 408.361 0 402.355C0 396.35 4.86867 391.481 10.8745 391.481C16.8803 391.481 21.7489 396.35 21.7489 402.355Z" fill="#11CF30" fill-opacity="0.24"/>
<path d="M86.9958 402.355C86.9958 408.361 82.1271 413.23 76.1213 413.23C70.1155 413.23 65.2468 408.361 65.2468 402.355C65.2468 396.35 70.1155 391.481 76.1213 391.481C82.1271 391.481 86.9958 396.35 86.9958 402.355Z" fill="#11CF30" fill-opacity="0.24"/>
<path d="M152.243 402.355C152.243 408.361 147.374 413.23 141.368 413.23C135.362 413.23 130.494 408.361 130.494 402.355C130.494 396.35 135.362 391.481 141.368 391.481C147.374 391.481 152.243 396.35 152.243 402.355Z" fill="#11CF30" fill-opacity="0.24"/>
<path d="M217.489 402.355C217.489 408.361 212.621 413.23 206.615 413.23C200.609 413.23 195.74 408.361 195.74 402.355C195.74 396.35 200.609 391.481 206.615 391.481C212.621 391.481 217.489 396.35 217.489 402.355Z" fill="#11CF30" fill-opacity="0.24"/>
<path d="M282.736 402.355C282.736 408.361 277.868 413.23 271.862 413.23C265.856 413.23 260.987 408.361 260.987 402.355C260.987 396.35 265.856 391.481 271.862 391.481C277.868 391.481 282.736 396.35 282.736 402.355Z" fill="#11CF30" fill-opacity="0.24"/>
<path d="M347.983 402.355C347.983 408.361 343.114 413.23 337.109 413.23C331.103 413.23 326.234 408.361 326.234 402.355C326.234 396.35 331.103 391.481 337.109 391.481C343.114 391.481 347.983 396.35 347.983 402.355Z" fill="#11CF30" fill-opacity="0.24"/>
<path d="M413.23 402.355C413.23 408.361 408.361 413.23 402.355 413.23C396.35 413.23 391.481 408.361 391.481 402.355C391.481 396.35 396.35 391.481 402.355 391.481C408.361 391.481 413.23 396.35 413.23 402.355Z" fill="#11CF30" fill-opacity="0.24"/>
<path d="M478.477 402.355C478.477 408.361 473.608 413.23 467.602 413.23C461.596 413.23 456.728 408.361 456.728 402.355C456.728 396.35 461.596 391.481 467.602 391.481C473.608 391.481 478.477 396.35 478.477 402.355Z" fill="#11CF30" fill-opacity="0.24"/>
<path d="M543.724 402.355C543.724 408.361 538.855 413.23 532.849 413.23C526.843 413.23 521.975 408.361 521.975 402.355C521.975 396.35 526.843 391.481 532.849 391.481C538.855 391.481 543.724 396.35 543.724 402.355Z" fill="#11CF30" fill-opacity="0.24"/>
<path d="M608.97 402.355C608.97 408.361 604.102 413.23 598.096 413.23C592.09 413.23 587.221 408.361 587.221 402.355C587.221 396.35 592.09 391.481 598.096 391.481C604.102 391.481 608.97 396.35 608.97 402.355Z" fill="#11CF30" fill-opacity="0.24"/>
<path d="M86.9958 467.602C86.9958 473.608 82.1271 478.477 76.1213 478.477C70.1155 478.477 65.2468 473.608 65.2468 467.602C65.2468 461.596 70.1155 456.728 76.1213 456.728C82.1271 456.728 86.9958 461.596 86.9958 467.602Z" fill="#11CF30" fill-opacity="0.24"/>
<path d="M152.243 467.602C152.243 473.608 147.374 478.477 141.368 478.477C135.362 478.477 130.494 473.608 130.494 467.602C130.494 461.596 135.362 456.728 141.368 456.728C147.374 456.728 152.243 461.596 152.243 467.602Z" fill="#11CF30" fill-opacity="0.24"/>
<path d="M217.489 467.602C217.489 473.608 212.621 478.477 206.615 478.477C200.609 478.477 195.74 473.608 195.74 467.602C195.74 461.596 200.609 456.728 206.615 456.728C212.621 456.728 217.489 461.596 217.489 467.602Z" fill="#11CF30" fill-opacity="0.24"/>
<path d="M282.736 467.602C282.736 473.608 277.868 478.477 271.862 478.477C265.856 478.477 260.987 473.608 260.987 467.602C260.987 461.596 265.856 456.728 271.862 456.728C277.868 456.728 282.736 461.596 282.736 467.602Z" fill="#11CF30" fill-opacity="0.24"/>
<path d="M347.983 467.602C347.983 473.608 343.114 478.477 337.109 478.477C331.103 478.477 326.234 473.608 326.234 467.602C326.234 461.596 331.103 456.728 337.109 456.728C343.114 456.728 347.983 461.596 347.983 467.602Z" fill="#11CF30" fill-opacity="0.24"/>
<path d="M413.23 467.602C413.23 473.608 408.361 478.477 402.355 478.477C396.35 478.477 391.481 473.608 391.481 467.602C391.481 461.596 396.35 456.728 402.355 456.728C408.361 456.728 413.23 461.596 413.23 467.602Z" fill="#11CF30" fill-opacity="0.24"/>
<path d="M478.477 467.602C478.477 473.608 473.608 478.477 467.602 478.477C461.596 478.477 456.728 473.608 456.728 467.602C456.728 461.596 461.596 456.728 467.602 456.728C473.608 456.728 478.477 461.596 478.477 467.602Z" fill="#11CF30" fill-opacity="0.24"/>
<path d="M543.724 467.602C543.724 473.608 538.855 478.477 532.849 478.477C526.843 478.477 521.975 473.608 521.975 467.602C521.975 461.596 526.843 456.728 532.849 456.728C538.855 456.728 543.724 461.596 543.724 467.602Z" fill="#11CF30" fill-opacity="0.24"/>
<path d="M152.243 532.849C152.243 538.855 147.374 543.724 141.368 543.724C135.362 543.724 130.494 538.855 130.494 532.849C130.494 526.843 135.362 521.975 141.368 521.975C147.374 521.975 152.243 526.843 152.243 532.849Z" fill="#11CF30" fill-opacity="0.24"/>
<path d="M217.489 532.849C217.489 538.855 212.621 543.724 206.615 543.724C200.609 543.724 195.74 538.855 195.74 532.849C195.74 526.843 200.609 521.975 206.615 521.975C212.621 521.975 217.489 526.843 217.489 532.849Z" fill="#11CF30" fill-opacity="0.24"/>
<path d="M282.736 532.849C282.736 538.855 277.868 543.724 271.862 543.724C265.856 543.724 260.987 538.855 260.987 532.849C260.987 526.843 265.856 521.975 271.862 521.975C277.868 521.975 282.736 526.843 282.736 532.849Z" fill="#11CF30" fill-opacity="0.24"/>
<path d="M347.983 532.849C347.983 538.855 343.114 543.724 337.109 543.724C331.103 543.724 326.234 538.855 326.234 532.849C326.234 526.843 331.103 521.975 337.109 521.975C343.114 521.975 347.983 526.843 347.983 532.849Z" fill="#11CF30" fill-opacity="0.24"/>
<path d="M413.23 532.849C413.23 538.855 408.361 543.724 402.355 543.724C396.35 543.724 391.481 538.855 391.481 532.849C391.481 526.843 396.35 521.975 402.355 521.975C408.361 521.975 413.23 526.843 413.23 532.849Z" fill="#11CF30" fill-opacity="0.24"/>
<path d="M478.477 532.849C478.477 538.855 473.608 543.724 467.602 543.724C461.596 543.724 456.728 538.855 456.728 532.849C456.728 526.843 461.596 521.975 467.602 521.975C473.608 521.975 478.477 526.843 478.477 532.849Z" fill="#11CF30" fill-opacity="0.24"/>
<path d="M217.489 598.096C217.489 604.102 212.621 608.97 206.615 608.97C200.609 608.97 195.74 604.102 195.74 598.096C195.74 592.09 200.609 587.221 206.615 587.221C212.621 587.221 217.489 592.09 217.489 598.096Z" fill="#11CF30" fill-opacity="0.24"/>
<path d="M282.736 598.096C282.736 604.102 277.868 608.97 271.862 608.97C265.856 608.97 260.987 604.102 260.987 598.096C260.987 592.09 265.856 587.221 271.862 587.221C277.868 587.221 282.736 592.09 282.736 598.096Z" fill="#11CF30" fill-opacity="0.24"/>
<path d="M347.983 598.096C347.983 604.102 343.114 608.97 337.109 608.97C331.103 608.97 326.234 604.102 326.234 598.096C326.234 592.09 331.103 587.221 337.109 587.221C343.114 587.221 347.983 592.09 347.983 598.096Z" fill="#11CF30" fill-opacity="0.24"/>
<path d="M413.23 598.096C413.23 604.102 408.361 608.97 402.355 608.97C396.35 608.97 391.481 604.102 391.481 598.096C391.481 592.09 396.35 587.221 402.355 587.221C408.361 587.221 413.23 592.09 413.23 598.096Z" fill="#11CF30" fill-opacity="0.24"/>
</svg>
