<svg width="177" height="115" viewBox="0 0 177 115" fill="none" xmlns="http://www.w3.org/2000/svg">
<path d="M53.5352 112.699C52.5935 113.985 51.0949 114.745 49.5008 114.745L10.2293 114.745C6.06747 114.745 3.72731 109.958 6.28393 106.674L42.2744 60.4442C43.6806 58.6379 43.6806 56.1074 42.2744 54.3011L6.28393 8.07169C3.72731 4.78774 6.06746 0.000160279 10.2293 0.000159915L49.5007 0.000156481C51.0949 0.000156342 52.5935 0.760326 53.5352 2.04664L91.8757 54.4191C93.1631 56.1777 93.1631 58.5676 91.8757 60.3261L53.5352 112.699Z" fill="black"/>
<path d="M136.399 112.699C135.458 113.985 133.959 114.745 132.365 114.745L93.0935 114.745C88.9317 114.745 86.5916 109.958 89.1482 106.674L125.139 60.4442C126.545 58.6379 126.545 56.1074 125.139 54.3011L89.1482 8.07169C86.5916 4.78774 88.9317 0.000160279 93.0935 0.000159915L132.365 0.000156481C133.959 0.000156342 135.458 0.760326 136.399 2.04664L174.74 54.4191C176.027 56.1777 176.027 58.5676 174.74 60.3261L136.399 112.699Z" fill="#11CF30"/>
</svg>
