<svg width="213" height="33" viewBox="0 0 213 33" fill="none" xmlns="http://www.w3.org/2000/svg">
<path d="M4.872 32V15.788H0.924V10.58H4.872V8.018C4.872 3.258 7.504 0.877998 12.768 0.877998C13.916 0.877998 15.12 1.004 16.38 1.256V6.296C15.484 6.128 14.686 6.044 13.986 6.044C12.866 6.044 12.054 6.254 11.55 6.674C11.074 7.094 10.836 7.752 10.836 8.648V10.58H16.38V15.788H10.836V32H4.872ZM20.0005 32V1.256H25.9645V32H20.0005ZM48.406 30.236C46.67 31.804 44.262 32.588 41.182 32.588C38.102 32.588 35.68 31.804 33.916 30.236C32.18 28.64 31.312 26.484 31.312 23.768V10.58H37.276V23.012C37.276 25.812 38.578 27.212 41.182 27.212C43.758 27.212 45.046 25.812 45.046 23.012V10.58H51.01V23.768C51.01 26.484 50.142 28.64 48.406 30.236ZM73.0974 30.236C71.3614 31.804 68.9534 32.588 65.8734 32.588C62.7934 32.588 60.3714 31.804 58.6074 30.236C56.8714 28.64 56.0034 26.484 56.0034 23.768V10.58H61.9674V23.012C61.9674 25.812 63.2694 27.212 65.8734 27.212C68.4494 27.212 69.7374 25.812 69.7374 23.012V10.58H75.7014V23.768C75.7014 26.484 74.8334 28.64 73.0974 30.236ZM91.0688 32.588C87.7088 32.588 84.9928 31.538 82.9208 29.438C80.8768 27.338 79.8548 24.622 79.8548 21.29C79.8548 17.93 80.8768 15.214 82.9208 13.142C84.9928 11.042 87.7088 9.992 91.0688 9.992C93.1688 9.992 95.0448 10.426 96.6968 11.294C98.3768 12.162 99.6508 13.366 100.519 14.906L96.0668 18.056C94.9188 16.292 93.3088 15.41 91.2368 15.41C89.6408 15.41 88.3528 15.942 87.3728 17.006C86.3928 18.07 85.9028 19.498 85.9028 21.29C85.9028 23.082 86.3928 24.51 87.3728 25.574C88.3528 26.638 89.6408 27.17 91.2368 27.17C93.3088 27.17 94.9188 26.288 96.0668 24.524L100.519 27.632C99.6508 29.2 98.3768 30.418 96.6968 31.286C95.0448 32.154 93.1688 32.588 91.0688 32.588Z" fill="#11CF30"/>
<path d="M121.386 32L113.406 21.5H110.76V32H104.586V2.6H117.228C120.756 2.6 123.43 3.426 125.25 5.078C127.098 6.702 128.022 9.068 128.022 12.176C128.022 17.412 125.446 20.45 120.294 21.29L128.82 32H121.386ZM110.76 8.228V16.124H116.808C118.488 16.124 119.706 15.816 120.462 15.2C121.218 14.556 121.596 13.548 121.596 12.176C121.596 10.804 121.218 9.81 120.462 9.194C119.706 8.55 118.488 8.228 116.808 8.228H110.76ZM147.593 10.58H153.473V32H147.593V28.808C146.977 29.984 146.039 30.908 144.779 31.58C143.519 32.252 142.119 32.588 140.579 32.588C137.779 32.588 135.469 31.538 133.649 29.438C131.829 27.338 130.919 24.622 130.919 21.29C130.919 17.958 131.829 15.242 133.649 13.142C135.469 11.042 137.779 9.992 140.579 9.992C142.119 9.992 143.519 10.328 144.779 11C146.039 11.672 146.977 12.596 147.593 13.772V10.58ZM138.395 25.616C139.375 26.68 140.691 27.212 142.343 27.212C143.995 27.212 145.297 26.68 146.249 25.616C147.229 24.524 147.719 23.082 147.719 21.29C147.719 19.498 147.229 18.07 146.249 17.006C145.297 15.914 143.995 15.368 142.343 15.368C140.691 15.368 139.375 15.914 138.395 17.006C137.443 18.07 136.967 19.498 136.967 21.29C136.967 23.082 137.443 24.524 138.395 25.616ZM164.879 6.464C164.207 7.108 163.311 7.43 162.191 7.43C161.071 7.43 160.175 7.108 159.503 6.464C158.831 5.792 158.495 4.924 158.495 3.86C158.495 2.796 158.831 1.942 159.503 1.298C160.175 0.625998 161.071 0.289998 162.191 0.289998C163.311 0.289998 164.207 0.625998 164.879 1.298C165.551 1.942 165.887 2.796 165.887 3.86C165.887 4.924 165.551 5.792 164.879 6.464ZM159.209 32V10.58H165.173V32H159.209ZM179.17 32.588C174.802 32.588 171.498 31.314 169.258 28.766L172.156 24.86C174.06 26.708 176.412 27.632 179.212 27.632C180.248 27.632 181.046 27.478 181.606 27.17C182.166 26.834 182.446 26.386 182.446 25.826C182.446 24.902 181.592 24.244 179.884 23.852L176.314 23.012C172.142 22.032 170.056 20.002 170.056 16.922C170.056 14.85 170.854 13.184 172.45 11.924C174.074 10.636 176.286 9.992 179.086 9.992C182.978 9.992 185.974 11.084 188.074 13.268L185.176 17.216C183.216 15.732 181.158 14.99 179.002 14.99C176.986 14.99 175.978 15.564 175.978 16.712C175.978 17.524 176.818 18.112 178.498 18.476L182.194 19.358C184.406 19.862 185.988 20.618 186.94 21.626C187.92 22.634 188.41 23.922 188.41 25.49C188.41 27.674 187.584 29.41 185.932 30.698C184.308 31.958 182.054 32.588 179.17 32.588ZM212.962 20.996C212.962 21.668 212.92 22.354 212.836 23.054H197.464C198.052 26.022 199.97 27.506 203.218 27.506C205.486 27.506 207.334 26.736 208.762 25.196L212.164 28.724C210.036 31.3 206.984 32.588 203.008 32.588C199.508 32.588 196.708 31.58 194.608 29.564C192.508 27.52 191.458 24.79 191.458 21.374C191.458 18.042 192.466 15.312 194.482 13.184C196.498 11.056 199.144 9.992 202.42 9.992C205.584 9.992 208.132 11 210.064 13.016C211.996 15.004 212.962 17.664 212.962 20.996ZM202.462 15.032C199.662 15.032 197.996 16.418 197.464 19.19H207.04C206.928 17.846 206.48 16.824 205.696 16.124C204.912 15.396 203.834 15.032 202.462 15.032Z" fill="black"/>
</svg>
