<svg width="202" height="33" viewBox="0 0 202 33" fill="none" xmlns="http://www.w3.org/2000/svg">
<path d="M4.872 32V15.788H0.924V10.58H4.872V8.018C4.872 3.258 7.504 0.877998 12.768 0.877998C13.916 0.877998 15.12 1.004 16.38 1.256V6.296C15.484 6.128 14.686 6.044 13.986 6.044C12.866 6.044 12.054 6.254 11.55 6.674C11.074 7.094 10.836 7.752 10.836 8.648V10.58H16.38V15.788H10.836V32H4.872ZM20.0005 32V1.256H25.9645V32H20.0005ZM48.406 30.236C46.67 31.804 44.262 32.588 41.182 32.588C38.102 32.588 35.68 31.804 33.916 30.236C32.18 28.64 31.312 26.484 31.312 23.768V10.58H37.276V23.012C37.276 25.812 38.578 27.212 41.182 27.212C43.758 27.212 45.046 25.812 45.046 23.012V10.58H51.01V23.768C51.01 26.484 50.142 28.64 48.406 30.236ZM73.0974 30.236C71.3614 31.804 68.9534 32.588 65.8734 32.588C62.7934 32.588 60.3714 31.804 58.6074 30.236C56.8714 28.64 56.0034 26.484 56.0034 23.768V10.58H61.9674V23.012C61.9674 25.812 63.2694 27.212 65.8734 27.212C68.4494 27.212 69.7374 25.812 69.7374 23.012V10.58H75.7014V23.768C75.7014 26.484 74.8334 28.64 73.0974 30.236ZM91.0688 32.588C87.7088 32.588 84.9928 31.538 82.9208 29.438C80.8768 27.338 79.8548 24.622 79.8548 21.29C79.8548 17.93 80.8768 15.214 82.9208 13.142C84.9928 11.042 87.7088 9.992 91.0688 9.992C93.1688 9.992 95.0448 10.426 96.6968 11.294C98.3768 12.162 99.6508 13.366 100.519 14.906L96.0668 18.056C94.9188 16.292 93.3088 15.41 91.2368 15.41C89.6408 15.41 88.3528 15.942 87.3728 17.006C86.3928 18.07 85.9028 19.498 85.9028 21.29C85.9028 23.082 86.3928 24.51 87.3728 25.574C88.3528 26.638 89.6408 27.17 91.2368 27.17C93.3088 27.17 94.9188 26.288 96.0668 24.524L100.519 27.632C99.6508 29.2 98.3768 30.418 96.6968 31.286C95.0448 32.154 93.1688 32.588 91.0688 32.588Z" fill="#11CF30"/>
<path d="M115.128 32.588C112.16 32.588 109.57 32.014 107.358 30.866C105.146 29.69 103.522 28.08 102.486 26.036L106.854 22.718C108.702 25.602 111.516 27.044 115.296 27.044C116.948 27.044 118.208 26.75 119.076 26.162C119.972 25.546 120.42 24.706 120.42 23.642C120.42 22.83 120.112 22.158 119.496 21.626C118.88 21.094 117.83 20.66 116.346 20.324L111.6 19.19C106.056 17.846 103.284 15.032 103.284 10.748C103.284 8.144 104.278 6.044 106.266 4.448C108.282 2.824 111.04 2.012 114.54 2.012C117.172 2.012 119.496 2.502 121.512 3.482C123.528 4.434 125.012 5.736 125.964 7.388L121.638 10.748C119.93 8.62 117.536 7.556 114.456 7.556C112.86 7.556 111.642 7.836 110.802 8.396C109.99 8.956 109.584 9.698 109.584 10.622C109.584 11.35 109.892 11.966 110.508 12.47C111.152 12.946 112.258 13.38 113.826 13.772L118.698 14.906C124.046 16.194 126.72 18.994 126.72 23.306C126.72 26.106 125.684 28.36 123.612 30.068C121.568 31.748 118.74 32.588 115.128 32.588ZM146.527 10.58H152.407V32H146.527V28.808C145.911 29.984 144.973 30.908 143.713 31.58C142.453 32.252 141.053 32.588 139.513 32.588C136.713 32.588 134.403 31.538 132.583 29.438C130.763 27.338 129.853 24.622 129.853 21.29C129.853 17.958 130.763 15.242 132.583 13.142C134.403 11.042 136.713 9.992 139.513 9.992C141.053 9.992 142.453 10.328 143.713 11C144.973 11.672 145.911 12.596 146.527 13.772V10.58ZM137.329 25.616C138.309 26.68 139.625 27.212 141.277 27.212C142.929 27.212 144.231 26.68 145.183 25.616C146.163 24.524 146.653 23.082 146.653 21.29C146.653 19.498 146.163 18.07 145.183 17.006C144.231 15.914 142.929 15.368 141.277 15.368C139.625 15.368 138.309 15.914 137.329 17.006C136.377 18.07 135.901 19.498 135.901 21.29C135.901 23.082 136.377 24.524 137.329 25.616ZM171.918 10.58H178.302L170.238 32H163.728L155.664 10.58H162.048L167.004 25.112L171.918 10.58ZM201.191 20.996C201.191 21.668 201.149 22.354 201.065 23.054H185.693C186.281 26.022 188.199 27.506 191.447 27.506C193.715 27.506 195.563 26.736 196.991 25.196L200.393 28.724C198.265 31.3 195.213 32.588 191.237 32.588C187.737 32.588 184.937 31.58 182.837 29.564C180.737 27.52 179.687 24.79 179.687 21.374C179.687 18.042 180.695 15.312 182.711 13.184C184.727 11.056 187.373 9.992 190.649 9.992C193.813 9.992 196.361 11 198.293 13.016C200.225 15.004 201.191 17.664 201.191 20.996ZM190.691 15.032C187.891 15.032 186.225 16.418 185.693 19.19H195.269C195.157 17.846 194.709 16.824 193.925 16.124C193.141 15.396 192.063 15.032 190.691 15.032Z" fill="white"/>
</svg>
