<svg width="36" height="30" viewBox="0 0 36 30" fill="none" xmlns="http://www.w3.org/2000/svg">
<path id="Vector" d="M9.08501 24.7332C7.25453 25.7952 5.22098 26.4475 3.11972 26.6422C3.99283 27.0594 4.89364 27.4084 5.81443 27.6872M9.08501 24.7332L34.2332 5.7872C33.6422 6.40476 33.0003 6.97135 32.3138 7.48031C32.328 7.80537 32.3359 8.13367 32.3359 8.45872C32.3359 18.4639 24.908 30 11.3204 30C8.3895 30.0033 5.50329 29.3746 2.84476 28.1687C3.85134 28.1018 4.84525 27.9398 5.81443 27.6872M9.08501 24.7332C9.67998 24.8725 10.2909 24.9497 10.9085 24.9613L10.9367 23.4615L9.99627 22.2929C9.62936 22.5882 9.24913 22.8623 8.85736 23.1146C8.07361 22.8622 7.33168 22.4761 6.66437 21.9678C5.8928 21.3801 5.24509 20.6473 4.75242 19.814C5.34897 19.8603 5.94834 19.8452 6.54148 19.7693M5.81443 27.6872C7.59315 28.2258 9.44643 28.5021 11.3186 28.5L11.3204 28.5C23.8751 28.5 30.8359 17.8559 30.8359 8.45872C30.8359 8.15778 30.8286 7.85152 30.8152 7.5461L30.7802 6.74992L31.4205 6.27531C31.5628 6.16981 31.703 6.06153 31.841 5.95057L31.0776 3.76604C30.923 3.802 30.7677 3.83566 30.6119 3.86701L29.7806 4.03429L29.2086 3.40825C28.3188 2.43436 27.1459 1.79449 25.8747 1.57981C24.6039 1.36518 23.2979 1.58601 22.1578 2.21175C21.017 2.83787 20.1023 3.83686 19.5631 5.06021C19.0236 6.28406 18.8927 7.65886 19.1927 8.96917L19.6355 10.9039L17.6534 10.8019C14.501 10.6396 11.4185 9.79972 8.60624 8.3382C6.56636 7.27807 4.70226 5.90839 3.07474 4.28075M5.81443 27.6872C8.00871 27.1154 10.0762 26.0793 11.8771 24.6302L15.0965 22.0395L10.9649 21.9618C9.7454 21.9389 8.55948 21.5258 7.57332 20.7746C7.1897 20.4823 6.8436 20.1444 6.54148 19.7693M6.54148 19.7693C6.95623 19.7162 7.36793 19.6333 7.7735 19.5208L7.67676 16.6066C6.35295 16.3324 5.15476 15.5956 4.28976 14.5117C3.88716 14.0072 3.56868 13.4423 3.34318 12.8403M6.54148 19.7693C6.42559 19.6254 6.31618 19.476 6.21361 19.3216C6.49355 19.4099 6.77873 19.4843 7.06825 19.5442L7.3725 18.0754L6.97151 16.63C6.15429 16.8567 5.30031 16.9005 4.46671 16.7592C3.96819 16.3845 3.51418 15.9446 3.11735 15.4474C2.38506 14.5298 1.87806 13.4552 1.62756 12.3134C2.18058 12.5477 2.75542 12.7243 3.34318 12.8403M3.34318 12.8403C3.80361 12.9312 4.27197 12.985 4.74402 13.0004L9.88313 13.168L5.64025 10.2635C4.83462 9.71195 4.17042 8.96243 3.70978 8.07866C3.24905 7.19471 3.00722 6.20554 3.0078 5.19929V5.19844C3.0078 4.88643 3.03067 4.58001 3.07474 4.28075M3.34318 12.8403C3.25239 12.5979 3.17666 12.3495 3.11659 12.0966C3.37954 12.3263 3.65625 12.5409 3.94558 12.739L4.79292 11.5012L4.84182 10.002C4.16359 9.97989 3.49529 9.8366 2.86639 9.57961C2.68833 9.32184 2.52566 9.05216 2.37962 8.77196C1.80655 7.67249 1.50709 6.44501 1.5078 5.19844C1.5078 4.41433 1.62472 3.65732 1.84131 2.94452C2.23537 3.40713 2.64688 3.85286 3.07474 4.28075" fill="white" stroke="white" stroke-width="3"/>
</svg>
